<?xml version="1.0" standalone="no"?>
<!DOCTYPE svg PUBLIC "-//W3C//DTD SVG 20010904//EN"
 "http://www.w3.org/TR/2001/REC-SVG-20010904/DTD/svg10.dtd">
<svg version="1.0" xmlns="http://www.w3.org/2000/svg"
 width="189.000000pt" height="235.000000pt" viewBox="0 0 189.000000 235.000000"
 preserveAspectRatio="xMidYMid meet">

<g transform="translate(0.000000,235.000000) scale(0.100000,-0.100000)"
fill="#000000" stroke="none">
<path d="M38 2343 l-38 -4 0 -357 0 -356 39 43 c21 23 55 71 76 107 40 68 51
80 35 39 -18 -46 -42 -90 -96 -168 -54 -79 -62 -93 -45 -83 33 21 181 289 167
304 -3 3 -6 -1 -6 -8 0 -7 -2 -11 -5 -8 -9 9 7 38 17 32 6 -4 8 1 4 13 -8 24
2 55 15 47 5 -3 6 2 3 10 -3 8 6 52 20 98 14 46 28 103 32 128 15 96 42 93 81
-11 l31 -81 -33 -62 c-32 -57 -65 -151 -79 -221 -3 -16 -1 -64 6 -105 7 -41
11 -105 8 -142 -4 -55 -9 -70 -27 -83 -13 -9 -34 -36 -49 -60 -25 -44 -26 -48
-20 -175 9 -200 42 -293 104 -293 l30 0 7 -73 c4 -41 13 -97 20 -125 18 -67 9
-249 -12 -249 -7 0 -34 -10 -59 -22 -54 -25 -96 -78 -120 -151 -23 -73 -77
-144 -114 -152 l-30 -7 0 -84 0 -84 725 0 725 0 0 55 c0 41 -5 60 -19 74 -49
49 -45 142 8 204 16 17 32 43 36 57 4 13 16 36 26 50 10 14 23 57 29 95 6 39
18 80 25 92 8 12 17 44 19 70 6 59 16 93 27 93 8 0 28 41 43 88 5 16 3 22 -8
22 -25 0 -26 14 -1 66 32 65 49 170 34 214 -9 24 -9 42 1 73 17 61 51 137 60
137 4 0 13 14 20 31 8 18 16 26 20 19 19 -31 39 173 25 262 -6 42 -4 51 21 85
27 36 27 37 3 16 -14 -13 -29 -23 -33 -23 -19 0 8 56 40 84 61 52 64 64 64
286 0 142 -3 200 -11 200 -7 0 -23 -12 -36 -26 -15 -17 -19 -24 -9 -21 17 7
23 -8 7 -17 -4 -3 -11 -19 -14 -36 -8 -35 -24 -40 -29 -8 -2 13 -11 24 -21 26
-25 5 -45 -24 -40 -57 l4 -26 -18 21 c-25 29 -64 16 -56 -18 l5 -23 -17 23
c-16 22 -42 21 -28 -1 4 -7 -1 -6 -10 2 -11 8 -15 22 -12 35 3 12 2 15 -1 9
-3 -7 -10 -13 -15 -13 -14 0 -11 28 4 33 6 2 8 8 4 13 -4 4 -17 2 -29 -5 -11
-7 -17 -8 -13 -2 3 6 1 11 -4 11 -6 0 -11 -7 -11 -15 0 -20 -29 -19 -53 3 -12
10 -17 11 -12 3 7 -11 2 -13 -26 -7 -19 3 -36 11 -37 17 -5 13 -122 69 -122
58 0 -10 -100 -2 -150 11 -33 9 -1019 11 -1102 3z m1682 -174 c0 -12 -5 -19
-11 -17 -6 2 -10 7 -10 11 1 4 1 14 1 23 0 8 5 12 10 9 6 -3 10 -15 10 -26z
m-83 -21 c-3 -8 -6 -5 -6 6 -1 11 2 17 5 13 3 -3 4 -12 1 -19z m-27 8 c0 -2
-7 -7 -16 -10 -8 -3 -12 -2 -9 4 6 10 25 14 25 6z m150 -61 c0 -8 -7 -15 -15
-15 -26 0 -18 20 13 29 1 1 2 -6 2 -14z m-700 -385 c0 -4 17 -11 37 -15 27 -5
33 -9 22 -16 -11 -7 -9 -9 8 -9 12 0 29 -10 37 -22 9 -12 16 -18 16 -13 0 13
52 43 67 38 6 -2 9 -13 6 -23 -7 -25 12 -26 22 -2 10 22 32 -86 30 -141 -2
-26 1 -34 7 -25 5 8 6 3 2 -16 -4 -15 -3 -31 2 -35 18 -12 48 -66 46 -80 -2
-7 1 -10 7 -6 6 3 11 1 11 -4 0 -6 -9 -11 -20 -11 -11 0 -20 -7 -20 -15 0 -9
-6 -12 -15 -9 -8 4 -15 1 -15 -5 0 -18 -20 -13 -39 10 -16 20 -18 20 -34 4
-10 -9 -24 -15 -31 -12 -7 3 -18 1 -24 -5 -12 -12 -32 -2 -32 17 0 7 -8 16
-17 19 -10 3 -45 12 -78 22 -33 9 -67 22 -75 29 -8 7 -32 16 -53 20 -47 9 -56
23 -29 45 12 10 18 21 14 25 -4 4 2 6 14 3 11 -3 29 1 39 8 10 8 14 14 8 14
-19 0 -21 37 -3 50 11 8 16 23 14 45 -2 26 1 32 12 28 11 -4 13 0 6 18 -12 33
-5 56 20 62 11 3 17 10 13 16 -3 7 0 8 9 5 9 -3 16 -10 16 -14z m-730 -374
c-13 -13 -35 7 -25 24 5 8 11 8 21 -1 10 -8 12 -15 4 -23z m-113 2 c-3 -8 -6
-5 -6 6 -1 11 2 17 5 13 3 -3 4 -12 1 -19z m43 -82 c0 -2 -7 -19 -15 -37 -11
-27 -14 -29 -15 -12 0 28 10 53 21 53 5 0 9 -2 9 -4z m68 -23 c-9 -10 -19 -28
-22 -40 -10 -31 -24 -29 -32 3 -7 25 10 49 27 38 4 -2 10 0 14 6 3 5 11 10 17
10 6 0 5 -7 -4 -17z m602 -18 c14 -17 12 -22 -10 -25 -35 -5 -41 -1 -28 20 15
24 22 25 38 5z m400 -100 c0 -8 -6 -15 -14 -15 -20 0 -29 17 -14 23 22 9 28 7
28 -8z m-663 -24 c10 -16 9 -20 -5 -23 -12 -4 -17 2 -18 19 -2 28 7 30 23 4z
m781 -11 c-15 -24 -22 -19 -13 9 3 12 11 19 16 16 5 -4 3 -14 -3 -25z m-164
14 c9 -3 16 -11 16 -16 0 -7 -5 -6 -13 1 -8 6 -17 8 -20 4 -4 -3 -7 -1 -7 5 0
14 2 14 24 6z m-574 -61 c0 -20 3 -33 6 -30 10 9 46 -12 39 -24 -4 -5 -1 -9 4
-9 6 0 11 3 11 8 0 9 96 15 122 6 19 -6 21 -24 3 -27 -10 -2 -36 -20 -66 -49
-10 -9 -30 -25 -45 -35 -25 -16 -27 -16 -22 -1 5 13 2 16 -13 13 -10 -2 -19 0
-19 6 0 5 -10 9 -22 9 -18 0 -20 2 -8 10 11 7 12 14 3 32 -20 42 -23 59 -13
79 9 16 7 19 -10 19 -22 0 -27 15 -7 23 29 12 37 6 37 -30z m455 -43 c-4 -12
-1 -28 6 -36 13 -15 16 -26 24 -69 2 -11 4 -20 6 -20 1 0 3 -20 4 -45 l2 -45
-40 0 c-45 0 -74 28 -47 45 8 5 11 10 6 10 -6 0 -5 5 2 12 16 16 15 23 -4 43
-10 10 -13 22 -8 33 4 9 6 21 5 26 -1 5 4 13 10 17 10 6 10 11 1 22 -14 16 -6
27 20 27 15 0 18 -5 13 -20z"/>
<path d="M1217 1644 c-3 -4 -3 -12 1 -18 4 -6 7 -14 8 -18 1 -5 2 -9 4 -10 1
-2 3 -12 5 -22 6 -33 41 -47 52 -20 4 10 -3 24 -19 37 -13 12 -29 30 -34 40
-6 10 -13 15 -17 11z m60 -90 c-9 -9 -28 6 -21 18 4 6 10 6 17 -1 6 -6 8 -13
4 -17z"/>
<path d="M1035 1480 c3 -5 8 -10 11 -10 2 0 4 5 4 10 0 6 -5 10 -11 10 -5 0
-7 -4 -4 -10z"/>
</g>
</svg>
